<?xml version="1.0" encoding="UTF-8"?><svg id="Capa_2" xmlns="http://www.w3.org/2000/svg" viewBox="0 0 221.09 113.97"><defs><style>.cls-1{fill:#ffffff;}</style></defs><g id="Capa_1-2"><path class="cls-1" d="m93.89,83.03c0,11.62-3.98,21.97-10.75,29.9h-22.88c11.11-4.88,18.49-15.85,18.49-29.25,0-18.04-13.68-31.64-31.82-31.64s-31.82,13.6-31.82,31.64c0,13.08,7.04,23.86,17.72,28.9.26.12.52.23.78.34H10.75C3.98,105,0,94.65,0,83.03c0-26.19,20.18-45.94,46.95-45.94s46.95,19.75,46.95,45.94Zm27.54,29.9V0h-15.84v112.93s15.84,0,15.84,0ZM183.79,0l-13.45,24.27h12.82L200.55,0h-16.76Zm20.93,84.67l-.23.49c-4.49,9.56-14.13,15.26-25.8,15.26-16.04,0-27.96-10.61-29.27-25.91h71.65v-.79c.25-14.12-3.56-26.06-10.98-34.79h-21.06c8.96,4.12,14.88,12.85,15.51,23.01h-55.11c1.09-10.03,7.39-18.85,16.32-23.01h-21.14c-6.96,7.86-11.11,18.41-11.11,30.35,0,26.31,18.51,44.68,45.01,44.68,9.63,0,18.6-2.73,25.94-7.9,5.29-3.73,9.49-8.59,12.18-14.03l-11.92-7.37Z"/></g></svg>